<svg xmlns="http://www.w3.org/2000/svg" viewBox="0 0 900 800" width="900" height="800" font-family="Helvetica, Arial, sans-serif" xmlns:c2pa="http://c2pa.org/manifest"><metadata><c2pa:manifest>AAAWgmp1bWIAAAAeanVtZGMycGEAEQAQgAAAqgA4m3EDYzJwYQAAABZcanVtYgAAAEdqdW1kYzJtYQARABCAAACqADibcQN1cm46YzJwYTplOTMyZGRiMi05N2UyLTQyNTItYmNhMy0zOTMyN2YxMWQ5ZWEAAAADl2p1bWIAAAApanVtZGMyYXMAEQAQgAAAqgA4m3EDYzJwYS5hc3NlcnRpb25zAAAAALxqdW1iAAAARGp1bWRjYm9yABEAEIAAAKoAOJtxE2MycGEuaW5ncmVkaWVudC52MwAAAAAYYzJzaNVRQsYUmVNkCvkVytVze9UAAABwY2JvcqNpZGM6Zm9ybWF0bWltYWdlL3N2Zyt4bWxqaW5zdGFuY2VJRHgseG1wOmlpZDoyY2NkM2U1YS04MTI5LTQ1MjItYWU4OS04MTM0OGRjNWU2ZjRscmVsYXRpb25zaGlwaHBhcmVudE9mAAAB4mp1bWIAAABBanVtZGNib3IAEQAQgAAAqgA4m3ETYzJwYS5hY3Rpb25zLnYyAAAAABhjMnNoJF9Q5tvBC46XWW/SYoE8DAAAAZljYm9yomdhY3Rpb25zgqJmYWN0aW9ua2MycGEub3BlbmVkanBhcmFtZXRlcnOha2luZ3JlZGllbnRzgaJjdXJseC1zZWxmI2p1bWJmPWMycGEuYXNzZXJ0aW9ucy9jMnBhLmluZ3JlZGllbnQudjNkaGFzaFggSuuMejfZNGPbrybfawnqAkzHbNlJCZl2jM+s7fKwFACkZmFjdGlvbngdY29tLmFudGhyb3BpYy5jbGF1ZGUucHJvdmlkZWRqcGFyYW1ldGVyc6F4H2NvbS5hbnRocm9waWMub3JpZ2luLWNvbmZpZGVuY2VndW5rbm93bmtkZXNjcmlwdGlvbnhmQ2xhdWRlIHByb3ZpZGVkIHRoaXMgZmlsZSBhdCB0aGUgcmVxdWVzdCBvZiBhIHVzZXIgYW5kIG1heSBoYXZlIGNyZWF0ZWQgb3IgbW9kaWZpZWQgdGhlIGZpbGUgY29udGVudHMubXNvZnR3YXJlQWdlbnShZG5hbWVmQ2xhdWRlcmFsbEFjdGlvbnNJbmNsdWRlZPUAAADIanVtYgAAAEBqdW1kY2JvcgARABCAAACqADibcRNjMnBhLmhhc2guZGF0YQAAAAAYYzJzaHv8ZgxjCh+b8cfLNB/CiXUAAACAY2JvcqVjYWxnZnNoYTI1NmNwYWRNAAAAAAAAAAAAAAAAAGRoYXNoWCCwKWWjKuEKZkRv0j9y3h6ajPj1G7dfdUINnD7HQMxagmRuYW1lbmp1bWJmIG1hbmlmZXN0amV4Y2x1c2lvbnOBomVzdGFydBjBZmxlbmd0aBkeBAAAAj5qdW1iAAAAJ2p1bWRjMmNsABEAEIAAAKoAOJtxA2MycGEuY2xhaW0udjIAAAACD2Nib3KlY2FsZ2ZzaGEyNTZpc2lnbmF0dXJleE1zZWxmI2p1bWJmPS9jMnBhL3VybjpjMnBhOmU5MzJkZGIyLTk3ZTItNDI1Mi1iY2EzLTM5MzI3ZjExZDllYS9jMnBhLnNpZ25hdHVyZWppbnN0YW5jZUlEeCx4bXA6aWlkOjAyNTkzYTc5LTg3NzktNDhiNy1hOGVhLWQ1NGZjNWMwODhjZHJjcmVhdGVkX2Fzc2VydGlvbnODomN1cmx4LXNlbGYjanVtYmY9YzJwYS5hc3NlcnRpb25zL2MycGEuaW5ncmVkaWVudC52M2RoYXNoWCBK64x6N9k0Y9uvJt9rCeoCTMds2UkJmXaMz6zt8rAUAKJjdXJseCpzZWxmI2p1bWJmPWMycGEuYXNzZXJ0aW9ucy9jMnBhLmFjdGlvbnMudjJkaGFzaFggYMH0/6oqtmrRaX22Crq9ZniKWqK/sloUcSjmJe9gXHWiY3VybHgpc2VsZiNqdW1iZj1jMnBhLmFzc2VydGlvbnMvYzJwYS5oYXNoLmRhdGFkaGFzaFggyu1Xok4jlhA9jhihdTls30ouNXsa+MRp3hjDWn7rl7V0Y2xhaW1fZ2VuZXJhdG9yX2luZm+jZG5hbWVvQW50aHJvcGljIEZpbGVzZ3ZlcnNpb25lMS4wLjBrc3BlY1ZlcnNpb25lMi40LjAAABA4anVtYgAAAChqdW1kYzJjcwARABCAAACqADibcQNjMnBhLnNpZ25hdHVyZQAAABAIY2JvctKEWQISogEmGCFZAgowggIGMIIBjaADAgECAhRA5aAK7sI50L64g/oGQgU9Z1UTADAKBggqhkjOPQQDAzBJMRcwFQYDVQQKEw5BbnRocm9waWMsIFBCQzEuMCwGA1UEAxMlQW50aHJvcGljIENvbnRlbnQgQ3JlZGVudGlhbHMgUm9vdCBDQTAeFw0yNjA4MDcxODQzNTZaFw0yODA4MDYxOTQzNTZaMEQxFzAVBgNVBAoTDkFudGhyb3BpYywgUEJDMSkwJwYDVQQDEyBBbnRocm9waWMgQ2xhdWRlIENvbnRlbnQgU2lnbmluZzBZMBMGByqGSM49AgEGCCqGSM49AwEHA0IABJh6CmvLUBgFFNU0vUKlOVtE6djd17L5SuwX0LemFisBM3dkd/3cyjxFA3Qo5S46fX0/ihY0VZ7mfb9KF703t5OjWDBWMA4GA1UdDwEB/wQEAwIHgDAVBgNVHSUEDjAMBgorBgEEAYPoXgIBMAwGA1UdEwEB/wQCMAAwHwYDVR0jBBgwFoAUzlHiBIFOZFsj+OPEz5o+nMHXXMIwCgYIKoZIzj0EAwMDZwAwZAIwMXMdFJ4BetLLVY7ORuE9noqbbAZOZn/aArXyTwFAZfKrPzxF2vPoJNf1+UCdg1XGAjBwX1zd9WGqYkqmL5SFqw1QySjr1zJfpJM9+1rdDwSPLMOPOjKuiXjoU/pUUeG9RwmhY3BhZFkNngAAAAAAAAAAAAAAAAAAAAAAAAAAAAAAAAAAAAAAAAAAAAAAAAAAAAAAAAAAAAAAAAAAAAAAAAAAAAAAAAAAAAAAAAAAAAAAAAAAAAAAAAAAAAAAAAAAAAAAAAAAAAAAAAAAAAAAAAAAAAAAAAAAAAAAAAAAAAAAAAAAAAAAAAAAAAAAAAAAAAAAAAAAAAAAAAAAAAAAAAAAAAAAAAAAAAAAAAAAAAAAAAAAAAAAAAAAAAAAAAAAAAAAAAAAAAAAAAAAAAAAAAAAAAAAAAAAAAAAAAAAAAAAAAAAAAAAAAAAAAAAAAAAAAAAAAAAAAAAAAAAAAAAAAAAAAAAAAAAAAAAAAAAAAAAAAAAAAAAAAAAAAAAAAAAAAAAAAAAAAAAAAAAAAAAAAAAAAAAAAAAAAAAAAAAAAAAAAAAAAAAAAAAAAAAAAAAAAAAAAAAAAAAAAAAAAAAAAAAAAAAAAAAAAAAAAAAAAAAAAAAAAAAAAAAAAAAAAAAAAAAAAAAAAAAAAAAAAAAAAAAAAAAAAAAAAAAAAAAAAAAAAAAAAAAAAAAAAAAAAAAAAAAAAAAAAAAAAAAAAAAAAAAAAAAAAAAAAAAAAAAAAAAAAAAAAAAAAAAAAAAAAAAAAAAAAAAAAAAAAAAAAAAAAAAAAAAAAAAAAAAAAAAAAAAAAAAAAAAAAAAAAAAAAAAAAAAAAAAAAAAAAAAAAAAAAAAAAAAAAAAAAAAAAAAAAAAAAAAAAAAAAAAAAAAAAAAAAAAAAAAAAAAAAAAAAAAAAAAAAAAAAAAAAAAAAAAAAAAAAAAAAAAAAAAAAAAAAAAAAAAAAAAAAAAAAAAAAAAAAAAAAAAAAAAAAAAAAAAAAAAAAAAAAAAAAAAAAAAAAAAAAAAAAAAAAAAAAAAAAAAAAAAAAAAAAAAAAAAAAAAAAAAAAAAAAAAAAAAAAAAAAAAAAAAAAAAAAAAAAAAAAAAAAAAAAAAAAAAAAAAAAAAAAAAAAAAAAAAAAAAAAAAAAAAAAAAAAAAAAAAAAAAAAAAAAAAAAAAAAAAAAAAAAAAAAAAAAAAAAAAAAAAAAAAAAAAAAAAAAAAAAAAAAAAAAAAAAAAAAAAAAAAAAAAAAAAAAAAAAAAAAAAAAAAAAAAAAAAAAAAAAAAAAAAAAAAAAAAAAAAAAAAAAAAAAAAAAAAAAAAAAAAAAAAAAAAAAAAAAAAAAAAAAAAAAAAAAAAAAAAAAAAAAAAAAAAAAAAAAAAAAAAAAAAAAAAAAAAAAAAAAAAAAAAAAAAAAAAAAAAAAAAAAAAAAAAAAAAAAAAAAAAAAAAAAAAAAAAAAAAAAAAAAAAAAAAAAAAAAAAAAAAAAAAAAAAAAAAAAAAAAAAAAAAAAAAAAAAAAAAAAAAAAAAAAAAAAAAAAAAAAAAAAAAAAAAAAAAAAAAAAAAAAAAAAAAAAAAAAAAAAAAAAAAAAAAAAAAAAAAAAAAAAAAAAAAAAAAAAAAAAAAAAAAAAAAAAAAAAAAAAAAAAAAAAAAAAAAAAAAAAAAAAAAAAAAAAAAAAAAAAAAAAAAAAAAAAAAAAAAAAAAAAAAAAAAAAAAAAAAAAAAAAAAAAAAAAAAAAAAAAAAAAAAAAAAAAAAAAAAAAAAAAAAAAAAAAAAAAAAAAAAAAAAAAAAAAAAAAAAAAAAAAAAAAAAAAAAAAAAAAAAAAAAAAAAAAAAAAAAAAAAAAAAAAAAAAAAAAAAAAAAAAAAAAAAAAAAAAAAAAAAAAAAAAAAAAAAAAAAAAAAAAAAAAAAAAAAAAAAAAAAAAAAAAAAAAAAAAAAAAAAAAAAAAAAAAAAAAAAAAAAAAAAAAAAAAAAAAAAAAAAAAAAAAAAAAAAAAAAAAAAAAAAAAAAAAAAAAAAAAAAAAAAAAAAAAAAAAAAAAAAAAAAAAAAAAAAAAAAAAAAAAAAAAAAAAAAAAAAAAAAAAAAAAAAAAAAAAAAAAAAAAAAAAAAAAAAAAAAAAAAAAAAAAAAAAAAAAAAAAAAAAAAAAAAAAAAAAAAAAAAAAAAAAAAAAAAAAAAAAAAAAAAAAAAAAAAAAAAAAAAAAAAAAAAAAAAAAAAAAAAAAAAAAAAAAAAAAAAAAAAAAAAAAAAAAAAAAAAAAAAAAAAAAAAAAAAAAAAAAAAAAAAAAAAAAAAAAAAAAAAAAAAAAAAAAAAAAAAAAAAAAAAAAAAAAAAAAAAAAAAAAAAAAAAAAAAAAAAAAAAAAAAAAAAAAAAAAAAAAAAAAAAAAAAAAAAAAAAAAAAAAAAAAAAAAAAAAAAAAAAAAAAAAAAAAAAAAAAAAAAAAAAAAAAAAAAAAAAAAAAAAAAAAAAAAAAAAAAAAAAAAAAAAAAAAAAAAAAAAAAAAAAAAAAAAAAAAAAAAAAAAAAAAAAAAAAAAAAAAAAAAAAAAAAAAAAAAAAAAAAAAAAAAAAAAAAAAAAAAAAAAAAAAAAAAAAAAAAAAAAAAAAAAAAAAAAAAAAAAAAAAAAAAAAAAAAAAAAAAAAAAAAAAAAAAAAAAAAAAAAAAAAAAAAAAAAAAAAAAAAAAAAAAAAAAAAAAAAAAAAAAAAAAAAAAAAAAAAAAAAAAAAAAAAAAAAAAAAAAAAAAAAAAAAAAAAAAAAAAAAAAAAAAAAAAAAAAAAAAAAAAAAAAAAAAAAAAAAAAAAAAAAAAAAAAAAAAAAAAAAAAAAAAAAAAAAAAAAAAAAAAAAAAAAAAAAAAAAAAAAAAAAAAAAAAAAAAAAAAAAAAAAAAAAAAAAAAAAAAAAAAAAAAAAAAAAAAAAAAAAAAAAAAAAAAAAAAAAAAAAAAAAAAAAAAAAAAAAAAAAAAAAAAAAAAAAAAAAAAAAAAAAAAAAAAAAAAAAAAAAAAAAAAAAAAAAAAAAAAAAAAAAAAAAAAAAAAAAAAAAAAAAAAAAAAAAAAAAAAAAAAAAAAAAAAAAAAAAAAAAAAAAAAAAAAAAAAAAAAAAAAAAAAAAAAAAAAAAAAAAAAAAAAAAAAAAAAAAAAAAAAAAAAAAAAAAAAAAAAAAAAAAAAAAAAAAAAAAAAAAAAAAAAAAAAAAAAAAAAAAAAAAAAAAAAAAAAAAAAAAAAAAAAAAAAAAAAAAAAAAAAAAAAAAAAAAAAAAAAAAAAAAAAAAAAAAAAAAAAAAAAAAAAAAAAAAAAAAAAAAAAAAAAAAAAAAAAAAAAAAAAAAAAAAAAAAAAAAAAAAAAAAAAAAAAAAAAAAAAAAAAAAAAAAAAAAAAAAAAAAAAAAAAAAAAAAAAAAAAAAAAAAAAAAAAAAAAAAAAAAAAAAAAAAAAAAAAAAAAAAAAAAAAAAAAAAAAAAAAAAAAAAAAAAAAAAAAAAAAAAAAAAAAAAAAAAAAAAAAAAAAAAAAAAAAAAAAAAAAAAAAAAAAAAAAAAAAAAAAAAAAAAAAAAAAAAAAAAAAAAAAAAAAAAAAAAAAAAAAAAAAAAAAAAAAAAAAAAAAAAAAAAAAAAAAAAAAAAAAAAAAAAAAAAAAAAAAAAAAAAAAAAAAAAAAAAAAAAAAAAAAAAAAAAAAAAAAAAAAAAAAAAAAAAAAAAAAAAAAAAAAAAAAAAAAAAAAAAAAAAAAAAAAAAAAAAAAAAAAAAAAAAAAAAAAAAAAAAAAAAAAAAAAAAAAAAAAAAAAAAAAAAAAAAAAAAAAAAAAAAAAAAAAAAAAAAAAAAAAAAAAAAAAAAAAAAAAAAAAAAAAAAAAAAAAAAAAAAAAAAAAAAAAAAAAAAAAAAAAAAAAAAAAAAAAAAAAAAAAAAAAAAAAAAAAAAAAAAAAAAAAAAAAAAAAAAAAAAAAAAAAAAAAAAAAAAAAAAAAAAAAAAAAAAAAAAAAAAAAAAAAAAAAAAAAAAAAAAAAAAAAAAAAAAAAAAAAAAAAAAAAAAAAAAAAAAAAAAAAAAAAAAAAAAAAAAAAAAAAAAAAAAAAAAAAAAAAAAAAAAAAAAAAAAAAAAAAAAAAAAAAAAAAAAAAAAAAAAAAAAAAAAAAAAAAAAAAAAAAAAAAAAAAAAAAAAAAAAAAAAAAAAAAAAAAAAAAAAAAAAAAAAAAAAAAAAAAAAAAAAAAAAAAAAAAAAAAAAAAAAAAAAAAAAAAAAAAAAAAAAAAAAAAAAAAAAAAAAAAAAAAAAAAAAAAAAAAAAAAAAAAAAAAAAAAAAAAAAAAAAAAAAAAAAAAAAAAAAAAAAAAAAAAAAAAAAAAAAAAAAAAAAAAAAAAAAAAAAAAAAAAAAAAAAAAAAAAAAAAAAAAAAAAAAAAAAAAAAAAAAAAAAAAAAAAAAAAAAAAAAAAAAAAAAAAAAAAAAAAAAAAAAAAAAAAAAAAAAAAAAAAAAAAAAAAAAAAAAAAAAAAAAAAAAAAAAAAAAAAAAAAAAAAAAAAAAAAAAAAAAAAAAAAAAAAAAAAAAAAAAAAAAAAAAAAAAAAAAAAAAAAAAAAAAAAAAAAAAAAAAAAAAAAAAAAAAAAAAAAAAAAAAAAAAAAAAAAAAAAAAAAAAAAAAAAAAAAAAAAAAAAAAAAAAAAAAAAAAAAAAAAAAAAAAAAAAAAAAAAAAAAAAAAAAAAAAAAAAAAAAAAAAAAAAAAAAAAAAAAAAAAAAAAAAAAAAAAAAAAAAAAAAAAAAAAAAAAAAAAAAAAAAAAAAAAAAAAAAAAAAAPZYQB1/ipnwNnKLx8xWD3hMFIvT4t9kCXHAqDn1R8gr67LjyQ6PT+IRLsKISzXaP0TKbNODCxsVVqZPmaw7GH/4n3k=</c2pa:manifest></metadata>
<rect width="900" height="800" fill="#0d1117"/>
<text x="450.0" y="40" fill="#e6edf3" font-size="22" font-weight="bold" text-anchor="middle">Raspberry Pi Pico Pinout</text>
<text x="450.0" y="62" fill="#8b949e" font-size="13" text-anchor="middle">Touch panel (I2C) and e-paper display (SPI) connections</text>
<rect x="390" y="92" width="120" height="606" rx="6" fill="#0a6b3a" stroke="#2fa866" stroke-width="2"/>
<rect x="426.0" y="76" width="48" height="32" rx="3" fill="#d0d4d9"/>
<text x="450.0" y="122" fill="#d7f5e3" font-size="10" text-anchor="middle">USB</text>
<rect x="404" y="152" width="22" height="30" rx="4" fill="#e8ece9"/>
<text x="415" y="198" fill="#d7f5e3" font-size="8" text-anchor="middle">BOOTSEL</text>
<circle cx="404" cy="116" r="3" fill="#7CFC00"/>
<rect x="424.0" y="342" width="52" height="52" rx="3" fill="#1c1f24"/>
<text x="450.0" y="373" fill="#9aa4ad" font-size="11" text-anchor="middle">RP2040</text>
<text x="450.0" y="452" fill="#d7f5e3" font-size="13" text-anchor="middle" transform="rotate(-90 450.0 452)">Raspberry Pi Pico</text>
<circle cx="430.0" cy="690" r="3" fill="#c9b458"/>
<circle cx="450.0" cy="690" r="3" fill="#c9b458"/>
<circle cx="470.0" cy="690" r="3" fill="#c9b458"/>
<circle cx="401" cy="130" r="5" fill="#c9b458"/>
<line x1="386" y1="130" x2="396" y2="130" stroke="#8b949e" stroke-width="2"/>
<rect x="350" y="119.0" width="34" height="22" rx="3" fill="#2b3038"/>
<text x="367.0" y="134.5" fill="#e6edf3" font-size="12.5" text-anchor="middle">1</text>
<rect x="270" y="119.0" width="76" height="22" rx="3" fill="#74c43a"/>
<text x="308.0" y="134.5" fill="#111" font-size="12.5" text-anchor="middle">GP0</text>
<circle cx="401" cy="158" r="5" fill="#c9b458"/>
<line x1="386" y1="158" x2="396" y2="158" stroke="#8b949e" stroke-width="2"/>
<rect x="350" y="147.0" width="34" height="22" rx="3" fill="#2b3038"/>
<text x="367.0" y="162.5" fill="#e6edf3" font-size="12.5" text-anchor="middle">2</text>
<rect x="270" y="147.0" width="76" height="22" rx="3" fill="#74c43a"/>
<text x="308.0" y="162.5" fill="#111" font-size="12.5" text-anchor="middle">GP1</text>
<circle cx="401" cy="186" r="5" fill="#c9b458"/>
<line x1="386" y1="186" x2="396" y2="186" stroke="#8b949e" stroke-width="2"/>
<rect x="350" y="175.0" width="34" height="22" rx="3" fill="#2b3038"/>
<text x="367.0" y="190.5" fill="#e6edf3" font-size="12.5" text-anchor="middle">3</text>
<rect x="270" y="175.0" width="76" height="22" rx="3" fill="#3a3f4b"/>
<text x="308.0" y="190.5" fill="#fff" font-size="12.5" text-anchor="middle">GND</text>
<circle cx="401" cy="214" r="5" fill="#c9b458"/>
<line x1="386" y1="214" x2="396" y2="214" stroke="#8b949e" stroke-width="2"/>
<rect x="350" y="203.0" width="34" height="22" rx="3" fill="#2b3038"/>
<text x="367.0" y="218.5" fill="#e6edf3" font-size="12.5" text-anchor="middle">4</text>
<rect x="270" y="203.0" width="76" height="22" rx="3" fill="#74c43a"/>
<text x="308.0" y="218.5" fill="#111" font-size="12.5" text-anchor="middle">GP2</text>
<circle cx="401" cy="242" r="5" fill="#c9b458"/>
<line x1="386" y1="242" x2="396" y2="242" stroke="#8b949e" stroke-width="2"/>
<rect x="350" y="231.0" width="34" height="22" rx="3" fill="#2b3038"/>
<text x="367.0" y="246.5" fill="#e6edf3" font-size="12.5" text-anchor="middle">5</text>
<rect x="270" y="231.0" width="76" height="22" rx="3" fill="#74c43a"/>
<text x="308.0" y="246.5" fill="#111" font-size="12.5" text-anchor="middle">GP3</text>
<circle cx="401" cy="270" r="5" fill="#c9b458"/>
<line x1="386" y1="270" x2="396" y2="270" stroke="#8b949e" stroke-width="2"/>
<rect x="350" y="259.0" width="34" height="22" rx="3" fill="#2b3038"/>
<text x="367.0" y="274.5" fill="#e6edf3" font-size="12.5" text-anchor="middle">6</text>
<rect x="270" y="259.0" width="76" height="22" rx="3" fill="#2f9be3"/>
<text x="308.0" y="274.5" fill="#fff" font-size="12.5" font-weight="bold" text-anchor="middle">GP4</text>
<rect x="100" y="259.0" width="164" height="22" rx="3" fill="#2f9be3"/>
<text x="182.0" y="274.5" fill="#fff" font-size="12.5" font-weight="bold" text-anchor="middle">TOUCH SDA</text>
<circle cx="401" cy="298" r="5" fill="#c9b458"/>
<line x1="386" y1="298" x2="396" y2="298" stroke="#8b949e" stroke-width="2"/>
<rect x="350" y="287.0" width="34" height="22" rx="3" fill="#2b3038"/>
<text x="367.0" y="302.5" fill="#e6edf3" font-size="12.5" text-anchor="middle">7</text>
<rect x="270" y="287.0" width="76" height="22" rx="3" fill="#2f9be3"/>
<text x="308.0" y="302.5" fill="#fff" font-size="12.5" font-weight="bold" text-anchor="middle">GP5</text>
<rect x="100" y="287.0" width="164" height="22" rx="3" fill="#2f9be3"/>
<text x="182.0" y="302.5" fill="#fff" font-size="12.5" font-weight="bold" text-anchor="middle">TOUCH SCL</text>
<circle cx="401" cy="326" r="5" fill="#c9b458"/>
<line x1="386" y1="326" x2="396" y2="326" stroke="#8b949e" stroke-width="2"/>
<rect x="350" y="315.0" width="34" height="22" rx="3" fill="#2b3038"/>
<text x="367.0" y="330.5" fill="#e6edf3" font-size="12.5" text-anchor="middle">8</text>
<rect x="270" y="315.0" width="76" height="22" rx="3" fill="#3a3f4b"/>
<text x="308.0" y="330.5" fill="#fff" font-size="12.5" text-anchor="middle">GND</text>
<circle cx="401" cy="354" r="5" fill="#c9b458"/>
<line x1="386" y1="354" x2="396" y2="354" stroke="#8b949e" stroke-width="2"/>
<rect x="350" y="343.0" width="34" height="22" rx="3" fill="#2b3038"/>
<text x="367.0" y="358.5" fill="#e6edf3" font-size="12.5" text-anchor="middle">9</text>
<rect x="270" y="343.0" width="76" height="22" rx="3" fill="#2f9be3"/>
<text x="308.0" y="358.5" fill="#fff" font-size="12.5" font-weight="bold" text-anchor="middle">GP6</text>
<rect x="100" y="343.0" width="164" height="22" rx="3" fill="#2f9be3"/>
<text x="182.0" y="358.5" fill="#fff" font-size="12.5" font-weight="bold" text-anchor="middle">TOUCH INT</text>
<circle cx="401" cy="382" r="5" fill="#c9b458"/>
<line x1="386" y1="382" x2="396" y2="382" stroke="#8b949e" stroke-width="2"/>
<rect x="350" y="371.0" width="34" height="22" rx="3" fill="#2b3038"/>
<text x="367.0" y="386.5" fill="#e6edf3" font-size="12.5" text-anchor="middle">10</text>
<rect x="270" y="371.0" width="76" height="22" rx="3" fill="#2f9be3"/>
<text x="308.0" y="386.5" fill="#fff" font-size="12.5" font-weight="bold" text-anchor="middle">GP7</text>
<rect x="100" y="371.0" width="164" height="22" rx="3" fill="#2f9be3"/>
<text x="182.0" y="386.5" fill="#fff" font-size="12.5" font-weight="bold" text-anchor="middle">TOUCH RESET</text>
<circle cx="401" cy="410" r="5" fill="#c9b458"/>
<line x1="386" y1="410" x2="396" y2="410" stroke="#8b949e" stroke-width="2"/>
<rect x="350" y="399.0" width="34" height="22" rx="3" fill="#2b3038"/>
<text x="367.0" y="414.5" fill="#e6edf3" font-size="12.5" text-anchor="middle">11</text>
<rect x="270" y="399.0" width="76" height="22" rx="3" fill="#74c43a"/>
<text x="308.0" y="414.5" fill="#111" font-size="12.5" text-anchor="middle">GP8</text>
<circle cx="401" cy="438" r="5" fill="#c9b458"/>
<line x1="386" y1="438" x2="396" y2="438" stroke="#8b949e" stroke-width="2"/>
<rect x="350" y="427.0" width="34" height="22" rx="3" fill="#2b3038"/>
<text x="367.0" y="442.5" fill="#e6edf3" font-size="12.5" text-anchor="middle">12</text>
<rect x="270" y="427.0" width="76" height="22" rx="3" fill="#74c43a"/>
<text x="308.0" y="442.5" fill="#111" font-size="12.5" text-anchor="middle">GP9</text>
<circle cx="401" cy="466" r="5" fill="#c9b458"/>
<line x1="386" y1="466" x2="396" y2="466" stroke="#8b949e" stroke-width="2"/>
<rect x="350" y="455.0" width="34" height="22" rx="3" fill="#2b3038"/>
<text x="367.0" y="470.5" fill="#e6edf3" font-size="12.5" text-anchor="middle">13</text>
<rect x="270" y="455.0" width="76" height="22" rx="3" fill="#3a3f4b"/>
<text x="308.0" y="470.5" fill="#fff" font-size="12.5" text-anchor="middle">GND</text>
<circle cx="401" cy="494" r="5" fill="#c9b458"/>
<line x1="386" y1="494" x2="396" y2="494" stroke="#8b949e" stroke-width="2"/>
<rect x="350" y="483.0" width="34" height="22" rx="3" fill="#2b3038"/>
<text x="367.0" y="498.5" fill="#e6edf3" font-size="12.5" text-anchor="middle">14</text>
<rect x="270" y="483.0" width="76" height="22" rx="3" fill="#74c43a"/>
<text x="308.0" y="498.5" fill="#111" font-size="12.5" text-anchor="middle">GP10</text>
<circle cx="401" cy="522" r="5" fill="#c9b458"/>
<line x1="386" y1="522" x2="396" y2="522" stroke="#8b949e" stroke-width="2"/>
<rect x="350" y="511.0" width="34" height="22" rx="3" fill="#2b3038"/>
<text x="367.0" y="526.5" fill="#e6edf3" font-size="12.5" text-anchor="middle">15</text>
<rect x="270" y="511.0" width="76" height="22" rx="3" fill="#74c43a"/>
<text x="308.0" y="526.5" fill="#111" font-size="12.5" text-anchor="middle">GP11</text>
<circle cx="401" cy="550" r="5" fill="#c9b458"/>
<line x1="386" y1="550" x2="396" y2="550" stroke="#8b949e" stroke-width="2"/>
<rect x="350" y="539.0" width="34" height="22" rx="3" fill="#2b3038"/>
<text x="367.0" y="554.5" fill="#e6edf3" font-size="12.5" text-anchor="middle">16</text>
<rect x="270" y="539.0" width="76" height="22" rx="3" fill="#74c43a"/>
<text x="308.0" y="554.5" fill="#111" font-size="12.5" text-anchor="middle">GP12</text>
<circle cx="401" cy="578" r="5" fill="#c9b458"/>
<line x1="386" y1="578" x2="396" y2="578" stroke="#8b949e" stroke-width="2"/>
<rect x="350" y="567.0" width="34" height="22" rx="3" fill="#2b3038"/>
<text x="367.0" y="582.5" fill="#e6edf3" font-size="12.5" text-anchor="middle">17</text>
<rect x="270" y="567.0" width="76" height="22" rx="3" fill="#74c43a"/>
<text x="308.0" y="582.5" fill="#111" font-size="12.5" text-anchor="middle">GP13</text>
<circle cx="401" cy="606" r="5" fill="#c9b458"/>
<line x1="386" y1="606" x2="396" y2="606" stroke="#8b949e" stroke-width="2"/>
<rect x="350" y="595.0" width="34" height="22" rx="3" fill="#2b3038"/>
<text x="367.0" y="610.5" fill="#e6edf3" font-size="12.5" text-anchor="middle">18</text>
<rect x="270" y="595.0" width="76" height="22" rx="3" fill="#3a3f4b"/>
<text x="308.0" y="610.5" fill="#fff" font-size="12.5" text-anchor="middle">GND</text>
<circle cx="401" cy="634" r="5" fill="#c9b458"/>
<line x1="386" y1="634" x2="396" y2="634" stroke="#8b949e" stroke-width="2"/>
<rect x="350" y="623.0" width="34" height="22" rx="3" fill="#2b3038"/>
<text x="367.0" y="638.5" fill="#e6edf3" font-size="12.5" text-anchor="middle">19</text>
<rect x="270" y="623.0" width="76" height="22" rx="3" fill="#74c43a"/>
<text x="308.0" y="638.5" fill="#111" font-size="12.5" text-anchor="middle">GP14</text>
<circle cx="401" cy="662" r="5" fill="#c9b458"/>
<line x1="386" y1="662" x2="396" y2="662" stroke="#8b949e" stroke-width="2"/>
<rect x="350" y="651.0" width="34" height="22" rx="3" fill="#2b3038"/>
<text x="367.0" y="666.5" fill="#e6edf3" font-size="12.5" text-anchor="middle">20</text>
<rect x="270" y="651.0" width="76" height="22" rx="3" fill="#74c43a"/>
<text x="308.0" y="666.5" fill="#111" font-size="12.5" text-anchor="middle">GP15</text>
<circle cx="499" cy="130" r="5" fill="#c9b458"/>
<line x1="504" y1="130" x2="514" y2="130" stroke="#8b949e" stroke-width="2"/>
<rect x="516" y="119.0" width="34" height="22" rx="3" fill="#2b3038"/>
<text x="533.0" y="134.5" fill="#e6edf3" font-size="12.5" text-anchor="middle">40</text>
<rect x="554" y="119.0" width="76" height="22" rx="3" fill="#e03131"/>
<text x="592.0" y="134.5" fill="#fff" font-size="12.5" text-anchor="middle">VBUS</text>
<circle cx="499" cy="158" r="5" fill="#c9b458"/>
<line x1="504" y1="158" x2="514" y2="158" stroke="#8b949e" stroke-width="2"/>
<rect x="516" y="147.0" width="34" height="22" rx="3" fill="#2b3038"/>
<text x="533.0" y="162.5" fill="#e6edf3" font-size="12.5" text-anchor="middle">39</text>
<rect x="554" y="147.0" width="76" height="22" rx="3" fill="#e03131"/>
<text x="592.0" y="162.5" fill="#fff" font-size="12.5" text-anchor="middle">VSYS</text>
<circle cx="499" cy="186" r="5" fill="#c9b458"/>
<line x1="504" y1="186" x2="514" y2="186" stroke="#8b949e" stroke-width="2"/>
<rect x="516" y="175.0" width="34" height="22" rx="3" fill="#2b3038"/>
<text x="533.0" y="190.5" fill="#e6edf3" font-size="12.5" text-anchor="middle">38</text>
<rect x="554" y="175.0" width="76" height="22" rx="3" fill="#3a3f4b"/>
<text x="592.0" y="190.5" fill="#fff" font-size="12.5" text-anchor="middle">GND</text>
<circle cx="499" cy="214" r="5" fill="#c9b458"/>
<line x1="504" y1="214" x2="514" y2="214" stroke="#8b949e" stroke-width="2"/>
<rect x="516" y="203.0" width="34" height="22" rx="3" fill="#2b3038"/>
<text x="533.0" y="218.5" fill="#e6edf3" font-size="12.5" text-anchor="middle">37</text>
<rect x="554" y="203.0" width="76" height="22" rx="3" fill="#f4a6a6"/>
<text x="592.0" y="218.5" fill="#111" font-size="12.5" text-anchor="middle">3V3_EN</text>
<circle cx="499" cy="242" r="5" fill="#c9b458"/>
<line x1="504" y1="242" x2="514" y2="242" stroke="#8b949e" stroke-width="2"/>
<rect x="516" y="231.0" width="34" height="22" rx="3" fill="#2b3038"/>
<text x="533.0" y="246.5" fill="#e6edf3" font-size="12.5" text-anchor="middle">36</text>
<rect x="554" y="231.0" width="76" height="22" rx="3" fill="#e03131"/>
<text x="592.0" y="246.5" fill="#fff" font-size="12.5" text-anchor="middle">3V3(OUT)</text>
<circle cx="499" cy="270" r="5" fill="#c9b458"/>
<line x1="504" y1="270" x2="514" y2="270" stroke="#8b949e" stroke-width="2"/>
<rect x="516" y="259.0" width="34" height="22" rx="3" fill="#2b3038"/>
<text x="533.0" y="274.5" fill="#e6edf3" font-size="12.5" text-anchor="middle">35</text>
<rect x="554" y="259.0" width="76" height="22" rx="3" fill="#3f8a1f"/>
<text x="592.0" y="274.5" fill="#fff" font-size="12.5" text-anchor="middle">ADC_VREF</text>
<circle cx="499" cy="298" r="5" fill="#c9b458"/>
<line x1="504" y1="298" x2="514" y2="298" stroke="#8b949e" stroke-width="2"/>
<rect x="516" y="287.0" width="34" height="22" rx="3" fill="#2b3038"/>
<text x="533.0" y="302.5" fill="#e6edf3" font-size="12.5" text-anchor="middle">34</text>
<rect x="554" y="287.0" width="76" height="22" rx="3" fill="#74c43a"/>
<text x="592.0" y="302.5" fill="#111" font-size="12.5" text-anchor="middle">GP28</text>
<circle cx="499" cy="326" r="5" fill="#c9b458"/>
<line x1="504" y1="326" x2="514" y2="326" stroke="#8b949e" stroke-width="2"/>
<rect x="516" y="315.0" width="34" height="22" rx="3" fill="#2b3038"/>
<text x="533.0" y="330.5" fill="#e6edf3" font-size="12.5" text-anchor="middle">33</text>
<rect x="554" y="315.0" width="76" height="22" rx="3" fill="#3a3f4b"/>
<text x="592.0" y="330.5" fill="#fff" font-size="12.5" text-anchor="middle">GND</text>
<circle cx="499" cy="354" r="5" fill="#c9b458"/>
<line x1="504" y1="354" x2="514" y2="354" stroke="#8b949e" stroke-width="2"/>
<rect x="516" y="343.0" width="34" height="22" rx="3" fill="#2b3038"/>
<text x="533.0" y="358.5" fill="#e6edf3" font-size="12.5" text-anchor="middle">32</text>
<rect x="554" y="343.0" width="76" height="22" rx="3" fill="#74c43a"/>
<text x="592.0" y="358.5" fill="#111" font-size="12.5" text-anchor="middle">GP27</text>
<circle cx="499" cy="382" r="5" fill="#c9b458"/>
<line x1="504" y1="382" x2="514" y2="382" stroke="#8b949e" stroke-width="2"/>
<rect x="516" y="371.0" width="34" height="22" rx="3" fill="#2b3038"/>
<text x="533.0" y="386.5" fill="#e6edf3" font-size="12.5" text-anchor="middle">31</text>
<rect x="554" y="371.0" width="76" height="22" rx="3" fill="#74c43a"/>
<text x="592.0" y="386.5" fill="#111" font-size="12.5" text-anchor="middle">GP26</text>
<circle cx="499" cy="410" r="5" fill="#c9b458"/>
<line x1="504" y1="410" x2="514" y2="410" stroke="#8b949e" stroke-width="2"/>
<rect x="516" y="399.0" width="34" height="22" rx="3" fill="#2b3038"/>
<text x="533.0" y="414.5" fill="#e6edf3" font-size="12.5" text-anchor="middle">30</text>
<rect x="554" y="399.0" width="76" height="22" rx="3" fill="#f4a6a6"/>
<text x="592.0" y="414.5" fill="#111" font-size="12.5" text-anchor="middle">RUN</text>
<circle cx="499" cy="438" r="5" fill="#c9b458"/>
<line x1="504" y1="438" x2="514" y2="438" stroke="#8b949e" stroke-width="2"/>
<rect x="516" y="427.0" width="34" height="22" rx="3" fill="#2b3038"/>
<text x="533.0" y="442.5" fill="#e6edf3" font-size="12.5" text-anchor="middle">29</text>
<rect x="554" y="427.0" width="76" height="22" rx="3" fill="#d6409f"/>
<text x="592.0" y="442.5" fill="#fff" font-size="12.5" font-weight="bold" text-anchor="middle">GP22</text>
<rect x="636" y="427.0" width="164" height="22" rx="3" fill="#d6409f"/>
<text x="718.0" y="442.5" fill="#fff" font-size="12.5" font-weight="bold" text-anchor="middle">EPD BUSY</text>
<circle cx="499" cy="466" r="5" fill="#c9b458"/>
<line x1="504" y1="466" x2="514" y2="466" stroke="#8b949e" stroke-width="2"/>
<rect x="516" y="455.0" width="34" height="22" rx="3" fill="#2b3038"/>
<text x="533.0" y="470.5" fill="#e6edf3" font-size="12.5" text-anchor="middle">28</text>
<rect x="554" y="455.0" width="76" height="22" rx="3" fill="#3a3f4b"/>
<text x="592.0" y="470.5" fill="#fff" font-size="12.5" text-anchor="middle">GND</text>
<circle cx="499" cy="494" r="5" fill="#c9b458"/>
<line x1="504" y1="494" x2="514" y2="494" stroke="#8b949e" stroke-width="2"/>
<rect x="516" y="483.0" width="34" height="22" rx="3" fill="#2b3038"/>
<text x="533.0" y="498.5" fill="#e6edf3" font-size="12.5" text-anchor="middle">27</text>
<rect x="554" y="483.0" width="76" height="22" rx="3" fill="#d6409f"/>
<text x="592.0" y="498.5" fill="#fff" font-size="12.5" font-weight="bold" text-anchor="middle">GP21</text>
<rect x="636" y="483.0" width="164" height="22" rx="3" fill="#d6409f"/>
<text x="718.0" y="498.5" fill="#fff" font-size="12.5" font-weight="bold" text-anchor="middle">EPD RESET</text>
<circle cx="499" cy="522" r="5" fill="#c9b458"/>
<line x1="504" y1="522" x2="514" y2="522" stroke="#8b949e" stroke-width="2"/>
<rect x="516" y="511.0" width="34" height="22" rx="3" fill="#2b3038"/>
<text x="533.0" y="526.5" fill="#e6edf3" font-size="12.5" text-anchor="middle">26</text>
<rect x="554" y="511.0" width="76" height="22" rx="3" fill="#d6409f"/>
<text x="592.0" y="526.5" fill="#fff" font-size="12.5" font-weight="bold" text-anchor="middle">GP20</text>
<rect x="636" y="511.0" width="164" height="22" rx="3" fill="#d6409f"/>
<text x="718.0" y="526.5" fill="#fff" font-size="12.5" font-weight="bold" text-anchor="middle">EPD D/C</text>
<circle cx="499" cy="550" r="5" fill="#c9b458"/>
<line x1="504" y1="550" x2="514" y2="550" stroke="#8b949e" stroke-width="2"/>
<rect x="516" y="539.0" width="34" height="22" rx="3" fill="#2b3038"/>
<text x="533.0" y="554.5" fill="#e6edf3" font-size="12.5" text-anchor="middle">25</text>
<rect x="554" y="539.0" width="76" height="22" rx="3" fill="#d6409f"/>
<text x="592.0" y="554.5" fill="#fff" font-size="12.5" font-weight="bold" text-anchor="middle">GP19</text>
<rect x="636" y="539.0" width="164" height="22" rx="3" fill="#d6409f"/>
<text x="718.0" y="554.5" fill="#fff" font-size="12.5" font-weight="bold" text-anchor="middle">EPD MOSI</text>
<circle cx="499" cy="578" r="5" fill="#c9b458"/>
<line x1="504" y1="578" x2="514" y2="578" stroke="#8b949e" stroke-width="2"/>
<rect x="516" y="567.0" width="34" height="22" rx="3" fill="#2b3038"/>
<text x="533.0" y="582.5" fill="#e6edf3" font-size="12.5" text-anchor="middle">24</text>
<rect x="554" y="567.0" width="76" height="22" rx="3" fill="#d6409f"/>
<text x="592.0" y="582.5" fill="#fff" font-size="12.5" font-weight="bold" text-anchor="middle">GP18</text>
<rect x="636" y="567.0" width="164" height="22" rx="3" fill="#d6409f"/>
<text x="718.0" y="582.5" fill="#fff" font-size="12.5" font-weight="bold" text-anchor="middle">EPD SCK</text>
<circle cx="499" cy="606" r="5" fill="#c9b458"/>
<line x1="504" y1="606" x2="514" y2="606" stroke="#8b949e" stroke-width="2"/>
<rect x="516" y="595.0" width="34" height="22" rx="3" fill="#2b3038"/>
<text x="533.0" y="610.5" fill="#e6edf3" font-size="12.5" text-anchor="middle">23</text>
<rect x="554" y="595.0" width="76" height="22" rx="3" fill="#3a3f4b"/>
<text x="592.0" y="610.5" fill="#fff" font-size="12.5" text-anchor="middle">GND</text>
<circle cx="499" cy="634" r="5" fill="#c9b458"/>
<line x1="504" y1="634" x2="514" y2="634" stroke="#8b949e" stroke-width="2"/>
<rect x="516" y="623.0" width="34" height="22" rx="3" fill="#2b3038"/>
<text x="533.0" y="638.5" fill="#e6edf3" font-size="12.5" text-anchor="middle">22</text>
<rect x="554" y="623.0" width="76" height="22" rx="3" fill="#d6409f"/>
<text x="592.0" y="638.5" fill="#fff" font-size="12.5" font-weight="bold" text-anchor="middle">GP17</text>
<rect x="636" y="623.0" width="164" height="22" rx="3" fill="#d6409f"/>
<text x="718.0" y="638.5" fill="#fff" font-size="12.5" font-weight="bold" text-anchor="middle">EPD CS</text>
<circle cx="499" cy="662" r="5" fill="#c9b458"/>
<line x1="504" y1="662" x2="514" y2="662" stroke="#8b949e" stroke-width="2"/>
<rect x="516" y="651.0" width="34" height="22" rx="3" fill="#2b3038"/>
<text x="533.0" y="666.5" fill="#e6edf3" font-size="12.5" text-anchor="middle">21</text>
<rect x="554" y="651.0" width="76" height="22" rx="3" fill="#d6409f"/>
<text x="592.0" y="666.5" fill="#fff" font-size="12.5" font-weight="bold" text-anchor="middle">GP16</text>
<rect x="636" y="651.0" width="164" height="22" rx="3" fill="#d6409f"/>
<text x="718.0" y="666.5" fill="#fff" font-size="12.5" font-weight="bold" text-anchor="middle">EPD MISO</text>
<rect x="20" y="714" width="860" height="52" rx="4" fill="none" stroke="#3a3f4b" stroke-width="2"/>
<rect x="40" y="731" width="18" height="18" fill="#e03131"/>
<text x="66" y="745" fill="#e6edf3" font-size="13">Power</text>
<rect x="130" y="731" width="18" height="18" fill="#3a3f4b"/>
<text x="156" y="745" fill="#e6edf3" font-size="13">Ground</text>
<rect x="230" y="731" width="18" height="18" fill="#74c43a"/>
<text x="256" y="745" fill="#e6edf3" font-size="13">GPIO (unused)</text>
<rect x="370" y="731" width="18" height="18" fill="#f4a6a6"/>
<text x="396" y="745" fill="#e6edf3" font-size="13">System control</text>
<rect x="500" y="731" width="18" height="18" fill="#2f9be3"/>
<text x="526" y="745" fill="#e6edf3" font-size="13">Touch TP370PGH01</text>
<rect x="670" y="731" width="18" height="18" fill="#d6409f"/>
<text x="696" y="745" fill="#e6edf3" font-size="13">E-paper E2370PS0C1</text>
</svg>